<svg xmlns="http://www.w3.org/2000/svg" viewBox="0 0 20.25 20.25"><defs><style>path{fill:#a6c222;}</style></defs><path d="M.2,10.12a9.88,9.88,0,1,1,0,.08S.2,10.15.2,10.12Zm1.1,0A8.82,8.82,0,1,0,10.12,1.3,8.82,8.82,0,0,0,1.3,10.12ZM9.57,7.37a.55.55,0,0,1,1.1,0v7.72a.55.55,0,0,1-1.1,0Zm0-2.2a.55.55,0,1,1,.55.55.52.52,0,0,1-.55-.55Z"/><path d="M10.08,20.25A10.08,10.08,0,0,1,0,10.21v-.08A10.12,10.12,0,1,1,10.12,20.25ZM10.12.4A9.73,9.73,0,0,0,.4,10.12v.08a9.68,9.68,0,0,0,9.72,9.64A9.72,9.72,0,1,0,10.12.4Zm0,18.74a9,9,0,0,1-9-9h0a9,9,0,1,1,9,9Zm-8.62-9a8.62,8.62,0,0,0,8.62,8.62h0A8.62,8.62,0,1,0,1.5,10.12Zm8.62,5.68h0a.75.75,0,0,1-.7-.7V7.36h0a.75.75,0,0,1,1.5,0v7.73A.75.75,0,0,1,10.12,15.8ZM9.77,7.37v7.71a.35.35,0,0,0,.33.32.37.37,0,0,0,.37-.33V7.37a.35.35,0,0,0-.33-.32.35.35,0,0,0-.37.32Zm.31-1.46a.72.72,0,0,1-.69-.55h0v-.2a.75.75,0,0,1,1.5,0A.77.77,0,0,1,10.08,5.91Zm-.31-.82v.08a.34.34,0,0,0,.11.26.3.3,0,0,0,.23.08.35.35,0,1,0-.33-.42Z"/></svg>