<svg xmlns="http://www.w3.org/2000/svg" viewBox="0 0 91.2 91.2" ><style type="text/css">.st0{fill:#9FC400;stroke:#FFFFFF;stroke-width:2;stroke-miterlimit:10;}.st1{fill:#FFFFFF;}</style><circle class="st0" cx="45.6" cy="45.6" r="44.6"/><path class="st1" d="M16 66V33c0-1 .4-1.8 1-2.4.7-.7 1.5-1 2.4-1h46.8c3.6 0 6.7 1.3 9.3 3.8 2.6 2.6 3.8 5.7 3.8 9.3 0 3.6-1.3 6.7-3.8 9.3-2.6 2.5-5.7 3.8-9.3 3.8H23V66c0 1-.3 1.8-1 2.4-.7.7-1.5 1-2.4 1s-1.8-.3-2.4-1c-.8-.7-1-1.5-1-2.4zm50.3-29.8H23v13h43.3c1.8 0 3.3-.7 4.6-2 1.2-1.2 1.8-2.8 1.8-4.6s-.6-3.3-2-4.6-2.7-1.8-4.5-1.8z"/></svg>
