<?xml version="1.0" encoding="utf-8"?>
<!-- Generator: Adobe Illustrator 21.0.2, SVG Export Plug-In . SVG Version: 6.00 Build 0)  -->
<svg version="1.1" id="Calque_1" xmlns="http://www.w3.org/2000/svg" xmlns:xlink="http://www.w3.org/1999/xlink" x="0px" y="0px"
	 viewBox="0 0 300 123" style="enable-background:new 0 0 300 123;" xml:space="preserve">
<style type="text/css">
	.st0{fill:none;}
	.st1{fill:#FFFFFF;}
	.st2{fill:#c0c0c0;}
</style>
<path class="st0" d="M-54.4,238.6c9-0.3,18-0.7,27.1-1C-36.4,237.9-45.4,238.3-54.4,238.6z"/>
<path class="st0" d="M1,207.8c0.1,0.6,0.1,1.2,0.2,1.6C1.2,209,1.1,208.4,1,207.8z"/>
<path class="st0" d="M0.6,245.1c0.2-0.2,0.5-0.4,0.6-0.6C1.1,244.7,0.9,244.9,0.6,245.1z"/>
<path class="st0" d="M0.2,245.3c-0.1,0.1-0.2,0.1-0.3,0.1C-0.1,245.4,0.1,245.4,0.2,245.3z"/>
<path class="st0" d="M0.5,245.1c-0.1,0.1-0.2,0.1-0.3,0.2C0.4,245.2,0.4,245.2,0.5,245.1z"/>
<path class="st0" d="M1.2,209.8c0-0.1,0-0.2,0-0.3C1.2,209.6,1.2,209.7,1.2,209.8z"/>
<path class="st1" d="M0.6,245.1C0.6,245.1,0.6,245.1,0.6,245.1C0.6,245.1,0.6,245.1,0.6,245.1z"/>
<path class="st1" d="M1.2,209.4C1.2,209.4,1.2,209.5,1.2,209.4C1.2,209.5,1.2,209.4,1.2,209.4z"/>
<path class="st1" d="M0.3,245.3C0.2,245.3,0.2,245.3,0.3,245.3C0.2,245.3,0.2,245.3,0.3,245.3z"/>
<path class="st1" d="M-79.2,239.4c8.3-0.3,16.5-0.6,24.8-0.9C-62.7,238.9-71,239.2-79.2,239.4z"/>
<path class="st0" d="M191.6,85.2c-0.2,0-0.4,0-0.6,0c-0.9,0.1-1.8,0.2-2.7,0.1c-0.5,0-1-0.1-1.5-0.1C131.4,85.1,75.9,85,20.5,85
	C76.7,85,132.8,85.1,189,85.2C189.8,85.2,190.7,85.2,191.6,85.2z"/>
<path class="st1" d="M191.6,85.2c8.3,0,16.5,0,24.8,0C208.1,85.2,199.8,85.2,191.6,85.2z"/>
<g>
	<path class="st2" d="M242.1,38.6l-12.1-0.1c-1.3,0-2.4-1.1-2.4-2.4c0-1.3,1.1-2.4,2.4-2.4l12.1,0.1c1.3,0,2.4,1.1,2.4,2.4
		C244.5,37.6,243.4,38.6,242.1,38.6z"/>
	<path class="st0" d="M88.6,47.4c-17.3,0-34.5,0-51.8-0.1l-0.1,3.2l115.4,0.6c6.9,0,13.8,0,20.7,0c0.3,0,0.5,0,0.8,0.1l5.2,0
		c-1.9,1.3-3.6,2.9-4.9,4.7l-3.6,0c-0.4,0-0.8,0.1-1.3,0.1c-29.3-0.1-58.7-0.1-88-0.2c-14.8,0-29.7-0.1-44.5-0.1L36.4,59l113.3,0.6
		c0.1,0,0.1,0,0.2,0c0,0,0,0,0.1,0l21.8,0.1c-0.6,1.5-1.1,3.1-1.3,4.7l-3.5,0c-0.6,0.1-1.4,0.1-2.1,0.1c-29.7-0.1-59.3-0.1-89-0.2
		c-13.3,0-26.5,0-39.8,0l-0.1,3.6c14.7,0,29.5,0,44.2,0c27.3,0,54.7,0.1,82,0.1l8.1,0c0.1,1.7,0.5,3.2,1,4.7l-4.2,0
		c-0.4,0-0.8,0.1-1.2,0.1c-7.3,0-14.6,0-21.8,0L35.9,73l-0.1,3.3c44.1,0.1,88.2,0.2,132.3,0.2c0.4,0,0.7,0,1.1,0l4,0
		c1.1,1.8,2.6,3.4,4.3,4.7l-12,0c-0.3,0-0.6,0-1,0c-0.4,0-0.8,0-1.2,0L35.6,81.6L35.5,85c50.4,0.1,100.9,0.1,151.3,0.2
		c0.5,0.1,1,0.1,1.5,0.1c0.9,0,1.8,0,2.7-0.1c0.2,0,0.4,0,0.6,0c8.3,0,16.5,0,24.8,0c9,0,18.1,0,27.1,0c10.8,0,19.3-8.4,19.4-18.8
		c0.1-10.3-8.3-18.7-19.3-18.8C191.9,47.5,140.2,47.5,88.6,47.4z M200.4,81.3c1.7-1.3,3.1-2.9,4.2-4.8l23,0c1.2,1.8,2.7,3.4,4.5,4.7
		L200.4,81.3z M225.8,72.7l-19.3,0c0.5-1.5,0.8-3.1,0.9-4.8l17.3,0C224.9,69.6,225.2,71.2,225.8,72.7z M224.7,64.7l-17.4-0.1
		c-0.2-1.7-0.6-3.3-1.2-4.8l19.6,0.1C225.2,61.5,224.8,63.1,224.7,64.7z M199.2,51.4l32.7,0.2c-1.7,1.3-3.2,2.9-4.3,4.7l-23.5-0.1
		C202.7,54.3,201.1,52.7,199.2,51.4z"/>
	<path class="st2" d="M207.3,64.7c-0.2-1.7-0.6-3.3-1.2-4.8l19.6,0.1c-0.5,1.5-0.9,3.1-1,4.7L207.3,64.7z"/>
	<path class="st2" d="M227.5,56.3l-23.5-0.1c-1.3-1.9-3-3.5-4.9-4.8l32.7,0.2C230.2,52.9,228.7,54.5,227.5,56.3z"/>
	<path class="st2" d="M204.7,76.5l23,0c1.2,1.8,2.7,3.4,4.5,4.7l-31.8,0.1C202.1,79.9,203.5,78.3,204.7,76.5z"/>
	<path class="st2" d="M149.9,59.6C149.9,59.6,150,59.6,149.9,59.6l21.9,0.1c-0.6,1.5-1.1,3.1-1.3,4.7l-3.5,0
		c-0.6,0.1-1.4,0.1-2.1,0.1c-29.7-0.1-59.3-0.1-89-0.2c-13.3,0-26.5,0-39.8,0l0.2-5.3l113.3,0.6C149.8,59.6,149.8,59.6,149.9,59.6z"
		/>
	<path class="st2" d="M162.3,68l8.1,0c0.1,1.7,0.5,3.2,1,4.7l-4.2,0c-0.4,0-0.8,0.1-1.2,0.1c-7.3,0-14.6,0-21.8,0L35.9,73l0.2-5.1
		c14.7,0,29.5,0,44.2,0C107.6,68,135,68,162.3,68z"/>
	<path class="st2" d="M169.2,76.6l4,0c1.1,1.8,2.6,3.4,4.3,4.7l-12,0c-0.3,0-0.6,0-1,0c-0.4,0-0.8,0-1.2,0L35.6,81.6l0.2-5.2
		c44.1,0.1,88.2,0.2,132.3,0.2C168.5,76.6,168.8,76.6,169.2,76.6z"/>
	<path class="st2" d="M241.2,42.8c2.8,0,5.7,0.2,8.4,0.8c11.2,2.5,18.4,12.6,17.7,24.5c-0.7,11.2-9.7,21.1-20.4,21.8
		c-8.1,0.5-16.3,0.2-24.5,0.2c-17.6,0-35.3,0-52.9-0.1c-30.1,0-60.3-0.1-90.4-0.1c-14.6,0-29.2,0-43.8,0l0.2-4.9
		c50.4,0.1,100.9,0.1,151.3,0.2c0.5,0.1,1,0.1,1.5,0.1c0.9,0,1.8,0,2.7-0.1c0.2,0,0.4,0,0.6,0c8.3,0,16.5,0,24.8,0
		c9,0,18.1,0,27.1,0c10.8,0,19.3-8.4,19.4-18.8c0.1-10.3-8.3-18.7-19.3-18.8c-51.7-0.1-103.3-0.2-155-0.2c-17.3,0-34.5,0-51.8-0.1
		l0.2-4.8C105.1,42.6,173.1,42.7,241.2,42.8z"/>
	<path class="st2" d="M172.8,51.2c0.3,0,0.5,0,0.8,0.1l5.2,0c-1.9,1.3-3.6,2.9-4.9,4.7l-3.6,0c-0.4,0-0.8,0.1-1.3,0.1
		c-29.3-0.1-58.7-0.1-88-0.2c-14.8,0-29.7-0.1-44.5-0.1l0.2-5.2l115.4,0.6C159,51.2,165.9,51.2,172.8,51.2z"/>
	<path class="st2" d="M206.4,72.7c0.5-1.5,0.8-3.1,0.9-4.8l17.3,0c0.1,1.7,0.5,3.2,1.1,4.7L206.4,72.7z"/>
</g>
</svg>
